<svg width="32" height="33" viewBox="0 0 32 33" fill="none" xmlns="http://www.w3.org/2000/svg">
<g id="circum:search">
<path id="Vector" d="M26.708 28.0416C27.3213 28.6452 28.268 27.7136 27.6547 27.1231L22.6547 22.1893C24.4086 20.2795 25.3781 17.796 25.3747 15.2217C25.3747 9.4613 20.6147 4.77686 14.7613 4.77686C8.90801 4.77686 4.14801 9.4613 4.14801 15.2217C4.14801 20.9821 8.90801 25.6666 14.7613 25.6666C17.4013 25.6666 19.8413 24.7087 21.708 23.121L26.708 28.0416ZM5.48001 15.2217C5.48001 10.183 9.65334 6.08902 14.76 6.08902C19.88 6.08902 24.04 10.183 24.04 15.2217C24.04 20.2605 19.88 24.3544 14.76 24.3544C9.65334 24.3544 5.48001 20.2605 5.48001 15.2217Z" fill="#28B0DB"/>
</g>
</svg>
