<svg width="32" height="32" viewBox="0 0 32 32" fill="none" xmlns="http://www.w3.org/2000/svg">
<g id="iconamoon:profile-light">
<g id="Group">
<path id="Vector" d="M5.33325 23.9998C5.33325 22.5853 5.89515 21.2288 6.89535 20.2286C7.89554 19.2284 9.2521 18.6665 10.6666 18.6665H21.3333C22.7477 18.6665 24.1043 19.2284 25.1045 20.2286C26.1047 21.2288 26.6666 22.5853 26.6666 23.9998C26.6666 24.7071 26.3856 25.3854 25.8855 25.8855C25.3854 26.3856 24.7072 26.6665 23.9999 26.6665H7.99992C7.29267 26.6665 6.6144 26.3856 6.1143 25.8855C5.6142 25.3854 5.33325 24.7071 5.33325 23.9998Z" stroke="white" stroke-opacity="0.9" stroke-width="1.5" stroke-linejoin="round"/>
<path id="Vector_2" d="M16 13.3333C18.2091 13.3333 20 11.5424 20 9.33325C20 7.12411 18.2091 5.33325 16 5.33325C13.7909 5.33325 12 7.12411 12 9.33325C12 11.5424 13.7909 13.3333 16 13.3333Z" stroke="white" stroke-opacity="0.9" stroke-width="1.5"/>
</g>
</g>
</svg>
